<svg width="150" height="52" viewBox="0 0 150 52" fill="none" xmlns="http://www.w3.org/2000/svg">
<path d="M42.5194 10.2224H1.81742C1.18281 10.2224 0.663574 9.69819 0.663574 9.05747V2.15518C0.663574 1.51446 1.18281 0.990234 1.81742 0.990234H42.5194C43.154 0.990234 43.6732 1.51446 43.6732 2.15518V9.05747C43.6732 9.69819 43.154 10.2224 42.5194 10.2224Z" fill="#44D9E6"/>
<path d="M42.5195 23.5027H8.04838C7.41376 23.5027 6.89453 22.9785 6.89453 22.3377V15.4355C6.89453 14.7947 7.41376 14.2705 8.04838 14.2705H42.5195C43.1542 14.2705 43.6734 14.7947 43.6734 15.4355V22.3377C43.6734 22.9785 43.1542 23.5027 42.5195 23.5027Z" fill="#44D9E6"/>
<path d="M41.9711 36.7832H17.6538C17.0192 36.7832 16.5 36.259 16.5 35.6183V28.716C16.5 28.0753 17.0192 27.551 17.6538 27.551H41.9423C42.5769 27.551 43.0961 28.0753 43.0961 28.716V35.6183C43.0961 36.259 42.5769 36.7832 41.9711 36.7832Z" fill="#44D9E6"/>
<path d="M42.5189 50.0635H22.7593C22.1247 50.0635 21.6055 49.5393 21.6055 48.8985V41.9962C21.6055 41.3555 22.1247 40.8313 22.7593 40.8313H42.5189C43.1535 40.8313 43.6728 41.3555 43.6728 41.9962V48.8985C43.6728 49.5393 43.1535 50.0635 42.5189 50.0635Z" fill="#44D9E6"/>
<path d="M63.3173 36.6666H67.1827V43.1321C66.2885 43.7728 65.2789 44.2679 64.125 44.6174C62.9712 44.9669 61.8173 45.1416 60.6923 45.1416C59.0769 45.1416 57.6058 44.7921 56.3077 44.0931C55.0096 43.3942 54 42.4331 53.25 41.2099C52.5 39.9867 52.1539 38.5888 52.1539 37.0161C52.1539 35.4434 52.5289 34.0455 53.25 32.8223C54 31.5991 55.0096 30.638 56.3077 29.9391C57.6058 29.2401 59.1058 28.8906 60.75 28.8906C62.1923 28.8906 63.4904 29.1236 64.6442 29.6187C65.7981 30.1138 66.75 30.8128 67.5289 31.7447L64.7596 34.2785C63.7212 33.1135 62.4519 32.5311 61.0096 32.5311C59.6827 32.5311 58.6154 32.9388 57.8077 33.7543C57 34.5697 56.5962 35.6473 56.5962 36.987C56.5962 37.8607 56.7692 38.6179 57.1442 39.2878C57.5192 39.9576 58.0385 40.4818 58.7019 40.8604C59.3654 41.239 60.1154 41.4429 60.9808 41.4429C61.8173 41.4429 62.5962 41.2682 63.3462 40.9187V36.6666H63.3173Z" fill="white"/>
<path d="M80.4231 41.7633H73.875L72.6635 44.7921H68.1923L75 29.1819H79.2981L86.1347 44.7921H81.6347L80.4231 41.7633ZM79.1539 38.5305L77.1635 33.5504L75.1731 38.5305H79.1539Z" fill="white"/>
<path d="M101.51 44.8213L101.452 36.5502L97.4711 43.2777H95.5385L91.5865 36.7832V44.8213H87.5481V29.211H91.1538L96.5769 38.2102L101.885 29.211H105.49L105.548 44.8213H101.51Z" fill="white"/>
<path d="M108.721 29.211H113.077V44.8213H108.692V29.211H108.721Z" fill="white"/>
<path d="M131.019 29.211V44.8213H127.413L120.606 36.521V44.8213H116.337V29.211H119.942L126.779 37.5112V29.211H131.019Z" fill="white"/>
<path d="M144.577 36.6666H148.442V43.1321C147.548 43.7728 146.538 44.2679 145.385 44.6174C144.231 44.9669 143.077 45.1416 141.952 45.1416C140.337 45.1416 138.865 44.7921 137.567 44.0931C136.269 43.3942 135.26 42.4331 134.51 41.2099C133.76 39.9867 133.413 38.5888 133.413 37.0161C133.413 35.4434 133.788 34.0455 134.51 32.8223C135.26 31.5991 136.269 30.638 137.567 29.9391C138.865 29.2401 140.365 28.8906 142.01 28.8906C143.452 28.8906 144.75 29.1236 145.904 29.6187C147.058 30.1138 148.01 30.8128 148.788 31.7447L146.019 34.2785C144.981 33.1135 143.712 32.5311 142.269 32.5311C140.942 32.5311 139.875 32.9388 139.067 33.7543C138.26 34.5697 137.856 35.6473 137.856 36.987C137.856 37.8607 138.029 38.6179 138.404 39.2878C138.779 39.9576 139.298 40.4818 139.962 40.8604C140.625 41.239 141.375 41.4429 142.24 41.4429C143.077 41.4429 143.856 41.2682 144.606 40.9187V36.6666H144.577Z" fill="white"/>
<path d="M55.3846 25.1046C54.2019 24.7842 53.25 24.3765 52.5289 23.8522L53.9712 20.5904C54.6635 21.0564 55.4712 21.435 56.3654 21.6971C57.2885 21.9883 58.1827 22.1339 59.0481 22.1339C60.7212 22.1339 61.5577 21.6971 61.5577 20.8525C61.5577 20.4157 61.3269 20.0662 60.8365 19.8623C60.3462 19.6584 59.5962 19.4255 58.5288 19.1925C57.375 18.9304 56.3942 18.6682 55.6154 18.377C54.8365 18.0858 54.1731 17.6198 53.5962 16.9791C53.0481 16.3383 52.7596 15.4646 52.7596 14.3871C52.7596 13.426 53.0192 12.5814 53.5385 11.8242C54.0577 11.067 54.8365 10.4554 55.8462 10.0185C56.8558 9.58167 58.125 9.34868 59.5962 9.34868C60.6058 9.34868 61.6154 9.46517 62.5961 9.69816C63.5769 9.93115 64.4423 10.2806 65.1923 10.7175L63.8942 13.9793C62.4231 13.1639 60.9808 12.7853 59.625 12.7853C58.7596 12.7853 58.125 12.9018 57.7212 13.1639C57.3173 13.426 57.1154 13.7755 57.1154 14.1832C57.1154 14.5909 57.3462 14.9113 57.8077 15.1152C58.2692 15.319 59.0481 15.552 60.0865 15.7559C61.2692 16.018 62.25 16.2801 63 16.5713C63.75 16.8626 64.4423 17.3286 65.0192 17.9401C65.5961 18.5809 65.8558 19.4255 65.8558 20.503C65.8558 21.435 65.5961 22.2796 65.0769 23.0368C64.5577 23.794 63.7788 24.4056 62.7692 24.8424C61.7308 25.3084 60.4904 25.5123 59.0192 25.5123C57.7788 25.5705 56.5673 25.4249 55.3846 25.1046Z" fill="white"/>
<path d="M71.0481 13.1639H66.2885V9.66907H80.1346V13.1639H75.4038V25.2793H71.0192V13.1639H71.0481Z" fill="white"/>
<path d="M88.6442 21.1146H86.25V25.2502H81.8654V9.66907H88.9327C90.3173 9.66907 91.5577 9.90206 92.5673 10.368C93.6058 10.834 94.3846 11.5039 94.9615 12.3776C95.5096 13.2513 95.7981 14.2706 95.7981 15.4355C95.7981 16.5714 95.5384 17.5616 95.0192 18.377C94.5 19.2216 93.75 19.8623 92.7692 20.3574L96.1154 25.2502H91.4423L88.6442 21.1146ZM90.7211 13.7464C90.2596 13.3386 89.5961 13.1348 88.7019 13.1348H86.2788V17.7072H88.7019C89.5961 17.7072 90.2884 17.5033 90.7211 17.1247C91.1827 16.717 91.4134 16.1636 91.4134 15.4355C91.4134 14.7075 91.1827 14.125 90.7211 13.7464Z" fill="white"/>
<path d="M98.3365 9.66907H102.721V25.2793H98.3365V9.66907Z" fill="white"/>
<path d="M121.587 9.66907L114.952 25.2793H110.654L104.048 9.66907H108.779L112.962 19.8332L117.231 9.66907H121.587Z" fill="white"/>
<path d="M135 21.8427V25.2502H122.596V9.66907H134.711V13.0765H126.923V15.6977H133.788V18.9886H126.923V21.8427H135Z" fill="white"/>
</svg>
